<?xml version="1.0" encoding="utf-8"?>
<svg xmlns="http://www.w3.org/2000/svg" viewBox="0 0 24 24" width="96" height="96">
  <path d="M17.677,13.346L16,12.517V7.233c0-1.279-0.508-2.506-1.413-3.41L13.355,2.59c-0.748-0.748-1.961-0.748-2.709,0L9.413,3.823C8.508,4.728,8,5.954,8,7.233v5.284l-1.677,0.829c-0.834,0.412-1.43,1.189-1.613,2.101L4.42,16.901C4.203,17.987,5.033,19,6.14,19H17.86c1.107,0,1.938-1.013,1.721-2.099l-0.291-1.454C19.107,14.535,18.511,13.758,17.677,13.346z" opacity=".35" fill="#FFFFFF" />
  <circle cx="12" cy="8" r="2" fill="#FFFFFF" />
  <path d="M9,19c0,0.983,0.724,2.206,1.461,3.197c0.771,1.038,2.307,1.038,3.079,0C14.276,21.206,15,19.983,15,19H9z" fill="#FFFFFF" />
</svg>